<svg height="620" viewBox="0 0 845 605" width="845" xmlns="http://www.w3.org/2000/svg"><g fill="none" fill-rule="evenodd" transform="translate(-300 -2883)"><g font-family="Helvetica" font-size="20"><text fill="#232d4b"><tspan x="431.103516" y="3493">SECTION ONE</tspan></text><text fill="#232d4b"><tspan x="301.630859" y="2903">100</tspan></text><text fill="#232d4b"><tspan x="312.753906" y="3037">75</tspan></text><text fill="#232d4b"><tspan x="312.753906" y="3163">50</tspan></text><text fill="#232d4b"><tspan x="312.753906" y="3307">25</tspan></text><text fill="#232d4b"><tspan x="323.876953" y="3457">0</tspan></text><text fill="#232d4b"><tspan x="690.624023" y="3493">SECTION TWO</tspan></text><text fill="#232d4b"><tspan x="940.057617" y="3493">SECTION THREE</tspan></text></g><path d="m361 2891-.5 555.4794" stroke="#9e9e9e" stroke-linecap="square" stroke-width="2"/><path d="m402 3058h98v389h-98z" fill="#232d4b"/><path d="m663 3102h98v344h-98z" fill="#232d4b"/><path d="m923 3191h98v256h-98z" fill="#232d4b"/><path d="m500 3266h98v181h-98z" fill="#e57200"/><path d="m761 2952h98v494h-98z" fill="#e57200"/><path d="m1021 3118h98v329h-98z" fill="#e57200"/><path d="m347.518519 3294.5h26.962962" stroke="#9e9e9e" stroke-linecap="square" stroke-width="2"/><path d="m347.518519 3149.5h26.962962" stroke="#9e9e9e" stroke-linecap="square" stroke-width="2"/><path d="m347.518519 3025.5h26.962962" stroke="#9e9e9e" stroke-linecap="square" stroke-width="2"/><path d="m347.518519 2890.5h26.962962" stroke="#9e9e9e" stroke-linecap="square" stroke-width="2"/><path d="m1143.47927 3446.5-803.47927.5" stroke="#9e9e9e" stroke-linecap="square" stroke-width="2"/></g></svg>