<svg height="32" viewBox="0 0 290 32" width="290" xmlns="http://www.w3.org/2000/svg" xmlns:xlink="http://www.w3.org/1999/xlink"><mask id="a" fill="#fff"><path d="m.6242063.40623158h23.3618682v15.98568422h-23.3618682z" fill="#fff" fill-rule="evenodd"/></mask><mask id="b" fill="#fff"><path d="m0 31.5868632h289.888653v-31.58652636h-289.888653z" fill="#fff" fill-rule="evenodd"/></mask><g fill="none" fill-rule="evenodd" transform="translate(-149 -24)"><path d="m-22 6h1479v70h-1479z" /><g transform="translate(149 24)"><g fill="#fff"><path d="m172.058413 24.6906105c2.190372 0 4.359971-4.4816842 4.359971-5.8905263.020774-.6610526-.358969-1.1949474-1.053639-1.1949474-.884126 0-2.000917.8109474-3.052894 2.5397895-.717106 1.1528421-1.222321 2.4547369-1.222321 3.4576842 0 .6829474.463668 1.088.968883 1.088m.31659 1.0248421c-1.159169 0-2.169599-1.1309473-2.169599-2.7536842 0-2.6888421 2.000917-6.3385263 4.802034-6.3385263 1.410946 0 2.253525 1.0458947 2.253525 2.4976842 0 2.3469474-1.832235 6.5945263-4.88596 6.5945263"/><path d="m179.610711 17.7753263h-1.874614c-.104699 0-.156217-.104421-.11467-.2543158l.084756-.3621052c.042379-.1498948.187794-.4909474.356476-.4909474h1.831404c.63235-1.8366316 1.244756-3.3296842 2.361547-4.5894737.589141-.6829474 1.747479-1.4509474 3.116877-1.4509474 1.220659 0 1.895387.7469474 1.895387 1.2589474 0 .6618947-.421289.9818947-.842579.9818947-.673897 0-.864183-.384-.926504-.8530526-.020774-.2138947-.231834-.6197895-.864184-.6197895-1.958538 0-2.38149 2.8193685-3.07616 5.2101053l1.209026.0294737v1.1570526l-1.71341-.0168421c-.546762 1.7288421-1.515645 5.3810526-2.568453 8.1128421-1.284642 3.3296842-2.780344 5.6985263-5.033868 5.6985263-.842579 0-1.516476-.576-1.516476-1.2589473 0-.4909474.358138-.9178948.905731-.9178948.610745 0 .926504.5970527.989656.96.042379.2138948.189456.3637895.358138.3637895 1.01043 0 2.148825-1.7928421 3.285559-5.7423158z"/><path d="m185.707275 7.44269474c1.046161.02021052 2.43384.04210526 3.676103.04210526 2.573439 0 3.951146-.09347368 4.22702-.09347368s.306619.09347368.306619.21810526v.71326316c0 .15494737-.030745.27957894-.245129.27957894h-1.470773c-.857536 0-1.286304.27957895-1.286304.80673685 0 .24842105.030745.62147367.122149 1.05599997.18447 1.1174737 1.317049 4.8109474 1.868796 6.5498948.367278 1.1789473 2.14384 6.5187368 2.848482 8.4117894.703811-1.4585263 3.09361-7.8534736 3.338739-8.5675789.306619-.8378947 1.470774-4.407579 1.930287-5.7734737.245129-.776421.427937-1.33473684.427937-1.76926315 0-.37221053-.214384-.71410527-.979685-.71410527h-.796046c-.12298 0-.153725-.09263157-.153725-.27957894v-.71326316c0-.15578947.030745-.21810526.18447-.21810526.275043 0 1.684327.09347368 3.613782.09347368 2.236075 0 3.002206-.09347368 3.27808-.09347368.182808 0 .213553.06231579.213553.21810526v.77557895c0 .12463158-.030745.21726315-.213553.21726315h-.827621c-1.01043 0-1.592092.49684211-2.175416 1.21094737-.796046.99284215-3.246504 7.35663155-3.766676 8.66021055-.367278 1.0248421-4.319255 10.896-4.472149 11.2067368-.122149.2484211-.275874.4025263-.428768.4025263-.245129 0-.368109-.3098947-.521003-.7132631-.979685-2.8564211-3.460888-9.9334737-3.859742-11.0509474l-.305788-1.0551579c-.735387-2.2046316-2.174584-6.7056842-2.573438-7.63621051-.305788-.71410526-.612407-1.02484211-1.254728-1.02484211l-.705473-.00673684z"/><path d="m209.570203 17.3674105c0-.2357894.033238-4.2408421.033238-4.5768421.033238-.7065263.332378-.8421052 1.228969-.8421052h.564212c.166189 0 .199427-.1002106.199427-.2349474v-.807579c0-.1010526-.066476-.168421-.199427-.168421-.265072 0-1.958539.1010526-2.921605.1010526-1.560516.0336842-3.62043-.1010526-3.819026-.1010526-.132951 0-.199427.0673684-.199427.2021053v.7738947c0 .1347368.033238.2349474.199427.2349474h.598281c1.393496 0 1.693467.3368421 1.693467.7073684 0 .4707368.065645 3.8366316.065645 4.3755789v1.479579c0 1.1452631-.032407 5.4189473-.065645 5.7212631-.066475.6063158-.598281.64-1.428395.64h-.730401c-.132952 0-.199427.1002106-.199427.2012632v.7402105c0 .1684211.066475.2703158.199427.2703158.198596 0 2.125558-.1018947 3.253983-.1018947 1.49404 0 3.220744.1018947 3.486647.1018947.16702 0 .199427-.1018947.199427-.2366316v-.8075789c0-.1010527-.032407-.167579-.199427-.167579h-.497736c-.963066 0-1.36192-.4707368-1.428396-1.2454737-.033238-.504421-.033238-4.3755789-.033238-4.5768421z"/><path d="m217.114441 12.5549474c0-.6063158.498568-.7402106.996304-.7402106 1.327851 0 2.257679.3023158 3.154269.8749474.598281.4033684 1.096018 1.312 1.096018 2.3216842 0 .8749474-.564213 3.4997895-4.250287 3.4997895-.432092 0-.76447-.0336842-.996304-.0673684zm-2.71553 5.7549473c-.033238 2.0522106 0 4.0378948-.033238 5.6867369 0 .7410526-.398023.8757895-1.194899.8757895h-.398854c-.132952 0-.198596.0665263-.198596.1675789v.7738947c0 .1684211.065644.2694737.198596.2694737.233495 0 1.926963-.1010526 2.757077-.1010526 1.095186 0 2.888367.1010526 3.121032.1010526.199427 0 .265902-.0673684.265902-.2357895v-.8075789c0-.1010526-.066475-.1675789-.199427-.1675789h-.863352c-.663926 0-.863353-.3705264-.929828-.8421053v-3.6336842-.807579c.232665-.0682105.530974-.0682105.863352-.0682105 1.394327 0 1.892894.7402105 3.087794 2.8269474.29914.5052631 1.760774 3.2311579 2.391461 3.7018947.564212-.0336842 1.361089-.0673684 2.125559-.0673684.331547 0 .730401.0336842 1.028711.0336842.333209.0336842.59828.0673684.664756.0673684.13212 0 .198596-.1010526.198596-.2357895v-.6728421c0-.2021052-.033238-.3023157-.165358-.3023157-.598281 0-1.029542-.0336843-1.494871-.3705264-.630688-.4715789-1.394327-1.480421-1.859656-2.1541052-1.361089-1.9511579-2.025846-2.9953684-2.788654-3.1629474v-.0673684c2.623295-.9423158 3.917909-2.2888421 3.917909-4.6105263 0-.7747369-.431261-1.7498948-1.161662-2.4572632-.830946-.7402105-2.324986-1.312-4.316762-1.312-.432092 0-3.32129.1010526-3.720144.1010526-.59745 0-2.655702-.1010526-2.821891-.1010526-.133782 0-.200258.0673684-.200258.1684211v.8075789c0 .1347369.033238.2349474.132952.2349474h.332378c.929828 0 1.228137.3705263 1.261375 1.0442105v3.2294737z"/><path d="m239.719567 21.4061474c0-.5726316.630688-.7073685.962235-.7073685h.565043c.099714 0 .166189-.1010526.166189-.2012631v-.8084211c0-.1002105-.066475-.1675789-.199427-.1675789-.132951 0-1.626991.0673684-2.855959.0673684-1.793181 0-3.420172-.0673684-3.619599-.0673684-.132121 0-.165358.0673684-.165358.1675789v.8084211c0 .1002105.033237.1675789.165358.1675789h.796877c.863352 0 1.627822.2357895 1.627822 1.0096842v1.2454737c0 .6728421-.066476 1.1098948-.498567 1.447579-.530975.4370526-1.593754.7402105-2.756247.7402105-.929828 0-2.25851-.5052632-3.187507-1.5149474-1.295444-1.3793684-2.026676-3.2976842-2.026676-5.8888421 0-1.5141052.731232-3.2985263 1.727536-4.4092631 1.228137-1.3456842 2.523581-1.7162106 3.553123-1.7162106 1.528109 0 2.457106.6728422 3.353696 1.616.796877.807579 1.36192 1.8501053 1.594585 2.3890527.098882.2686316.165358.3023158.265071.2686316l.630688-.2012632c.099713-.0336842.132951-.1010526.132951-.2694737-.066475-.6054737-.497736-3.7355789-.497736-3.904 0-.2349474-.066476-.3705263-.365616-.3705263-.265072 0-.364785.1018947-.431261.2357895l-.166189.3031579c-.066476.1010526-.199427.1010526-.464499-.1347369-.631518-.4707368-2.192034-1.0770526-3.786619-1.0770526-2.357392 0-4.382407.7073684-5.943753 2.0530526-1.593754 1.4130527-2.457106 3.4661053-2.457106 5.5191579 0 2.6248421.663925 4.4421053 1.991776 5.9233684 1.561347 1.7498948 4.218711 2.4564211 5.945416 2.4564211 2.124728 0 3.917908-.471579 5.677851-1.3465263.232665-.1010527.364785-.2012632.364785-.3696842 0-.1684211-.098883-.3696842-.098883-.6736842z"/><path d="m245.808072 17.3674105c0-.2357894.033237-4.2408421.033237-4.5768421.033238-.7065263.331548-.8421052 1.228969-.8421052h.564212c.165358 0 .199427-.1002106.199427-.2349474v-.807579c0-.1010526-.067307-.168421-.199427-.168421-.265903 0-1.95937.1010526-2.922436.1010526-1.560515.0336842-3.619598-.1010526-3.819025-.1010526-.132121 0-.198596.0673684-.198596.2021053v.7738947c0 .1347368.033237.2349474.198596.2349474h.59828c1.394327 0 1.693468.3368421 1.693468.7073684 0 .4707368.066475 3.8366316.066475 4.3755789v1.479579c0 1.1452631-.033238 5.4189473-.066475 5.7212631-.066476.6063158-.598281.64-1.428396.64h-.730401c-.132951 0-.199427.1002106-.199427.2012632v.7402105c0 .1684211.066476.2703158.199427.2703158.198596 0 2.125559-.1018947 3.253983-.1018947 1.494871 0 3.221576.1018947 3.486647.1018947.16702 0 .200258-.1018947.200258-.2366316v-.8075789c0-.1010527-.033238-.167579-.200258-.167579h-.497736c-.962235 0-1.361089-.4707368-1.427565-1.2454737-.033237-.504421-.033237-4.3755789-.033237-4.5768421z"/><path d="m263.755332 17.7038316c0-1.3802105-.066475-3.4997895.098883-5.0484211.066476-.4707368.232665-.7065263 1.062779-.7065263h.332378c.132952 0 .199427-.1010526.199427-.2349474v-.7073684c0-.2012631-.066475-.2686316-.232664-.2686316-.231834 0-1.395158.1010527-2.092321.1010527-1.06278 0-2.490344-.1010527-2.723009-.1010527-.165358 0-.231834.0673685-.231834.167579v.808421c0 .167579.066476.2349474.231834.2349474h.565043c.564212 0 1.06278.2021053 1.228138.6063158.166189.4033684.265902 2.3553684.265902 3.1637895.066476 1.0762105.099714 2.1195789.099714 4.0378947v2.2206316h-.132952c-.398022-.4370526-3.486647-4.3747369-4.084928-5.0812632-.697163-.8412631-4.515358-5.7212631-4.615072-5.856-.132951-.2012631-.332378-.2686315-.796876-.2686315-.398854 0-1.096848.0673684-1.626992.0673684-.366447 0-.89659-.0336842-1.328682-.0673684-.43126 0-.796877-.0336843-.863352-.0336843-.132951 0-.199427.1010527-.199427.2012632v.8075789c0 .1347369.066476.2021053.199427.2021053h.298309c.929828 0 1.760774.5726316 1.760774 1.783579v3.5334736c0 3.8029474-.067307 6.1928421-.100544 6.5962106-.099714.7738947-.629857 1.0105263-.963066 1.0105263h-.763639c-.099714 0-.132952.0328421-.132952.1002105v.8749474c0 .168421.033238.2357895.099714.2357895.266733 0 1.759943-.1010527 2.225272-.1010527.963066 0 2.291748.1010527 2.523582.1010527.166189 0 .166189-.0673685.166189-.2021053v-.807579c0-.1347368 0-.2012631-.166189-.2012631h-.697164c-.331547 0-.697994-.3713684-.796876-1.1452632-.066476-.3023158-.199427-3.6673684-.199427-5.6875789v-4.6096842h.066475c.531805.6054737 3.220745 4.24 4.018453 5.1823158.364785.4378947 1.79235 2.1541052 3.320458 4.0050526 1.36192 1.6488421 2.490344 3.0290526 2.722178 3.264.133782.1010526.46533.336.76447.336.398854 0 .498567-.336.498567-.6383158z"/><path d="m5.73784527 7.67528421v1.68252632c0 .20126315 0 4.07242107.03323782 4.57684207.06647565.7747369.46532952 1.2454737 1.42756447 1.2454737h.38389685c.56338109 0 1.09518625-.3368421 1.36025788-.7073684.2334957-.2686316 1.92696271-4.3073684 2.72383951-5.98989474.2326648-.47157895 2.1912035-5.04842105 2.3906304-5.62021053.0664757-.20210526.2659026-.57263158.0332378-.6728421-.0656447-.06736842-.1653581-.23578948-.1321203-.33684211-.0332378-.06736842.0332378-.16842105.3315473-.23578947.6306876-.10021053 1.5605157-.70652632 1.8596561-.976.0656447-.13473684.199427-.23494737.3988539-.23494737.198596 0 .2650716.13389474.3315473.36968421.4653295 1.34652632 2.1587965 6.15831579 2.5900573 7.5048421.4985673 1.68336843 1.9261318 5.65389471 2.1587965 5.99073681.4320917.6054737.9954728.9086316 1.5605158.9086316h.6315186c.1321204 0 .1653582.1002105.1653582.2012632v.7065263c0 .1010526-.0332378.304-.2318338.304-.3988539 0-2.1587966-.1018947-2.9224356-.1018947-.6315186 0-2.5900573.1018947-3.022149.1018947-.2326647 0-.2659025-.1692632-.2659025-.304v-.7065263c0-.1010527.0332378-.2012632.1661891-.2012632h.5318051c.398023 0 .5309743-.3031579.5309743-.5726316-.1329513-.6728421-1.0295416-3.3650526-1.2946132-4.1397894h-5.3471347c-.1329513.4042105-1.1948997 3.1974736-1.327851 3.6016842-.1994269.6736842-.0997135 1.1107368.5974499 1.1107368h.8301146c.1994269 0 .2326647.1002105.2326647.2349474v.7402105c0 .1347369-.0332378.2366316-.1994269.2366316-.2659026 0-2.0258453-.1018947-2.55681949-.1018947h-5.49753582c-1.12842407 0-3.05538682.1018947-3.25398281.1018947-.13295129 0-.19942693-.1018947-.19942693-.2703158v-.7402105c0-.1010527.06647564-.2012632.19942693-.2012632h.73040115c.83011461 0 1.36191977-.0336842 1.42839541-.64.03323783-.3023158.06647565-4.57599998.06647565-5.72126314v-1.47957895c0-.53894737-.06647565-3.9048421-.06647565-4.37557895 0-.37052631-.2991404-.70736842-1.69346705-.70736842h-.5982808c-.16535816 0-.19859599-.10021052-.19859599-.23494737v-.77389473c0-.13473685.06647565-.20210527.19859599-.20210527.19942694 0 2.25851003.13473685 3.81902579.10105264.9630659 0 2.65653295-.10105264 2.92243553-.10105264.13212034 0 .19942693.06736842.19942693.16842106v.80757894c0 .13473685-.03406876.23494737-.19942693.23494737h-.56421203c-.89742121 0-1.19573066.13557895-1.22896849.84210527 0 .336-.03323782 4.34105263-.03323782 4.5768421m6.89186243 1.71621053h4.5161891c-.1329512-.47073685-1.6942979-5.5191579-1.7607736-5.78863158-.0656447-.20210527-.0988825-.336-.198596-.336-.0997134 0-.1661891.10021052-.2659026.36968421-.0988825.26947368-2.1255587 5.41894737-2.2909169 5.75494737" mask="url(#a)" transform="translate(265.902579 9.692126)"/><path d="m42.5322808 28.3839158c2.6590258 0 4.5228367-.7132632 5.7459885-1.8585263 1.7117479-1.4871579 2.3839828-3.4383158 2.5667909-5.9789474.0922349-1.2075789.152894-6.6282105.152894-7.0618947s0-4.83200003.0614899-5.14189477c.092235-.37136842.183639-1.23873684 1.3145559-1.23873684h1.2530659c.152894 0 .182808-.12378947.182808-.30989474v-.68126316c0-.09263157-.029914-.21726315-.304957-.21726315s-1.2530659.09347368-3.3620057.09347368c-2.0482808 0-3.4542407-.09347368-3.7600287-.09347368-.182808 0-.213553.06231579-.213553.21726315v.74357895c0 .15494737.030745.24757895.213553.24757895h1.3453009c.7943839 0 1.2829799.55747368 1.3752149 1.36336842.0922349.77389474.152894 2.57010529.152894 4.92463159v6.6282105c0 2.2922105-.397192 4.1507369-1.5895989 5.4517895-1.0694269 1.1149474-2.8426647 1.7035789-4.5843266 1.7035789-1.7732379 0-3.7292837-.5574736-4.8602006-2.2298947-.70298-1.0534737-.9472779-2.5086316-.9780229-3.9343158-.0299141-.9911579-.1520631-4.9246316-.1520631-6.5658947v-2.0446316c0-1.5797895.0299141-3.74821053.0606591-4.02694737.0614899-.68126316.5808309-1.26989474 1.4674498-1.26989474h1.5281089c.213553 0 .244298-.06147368.244298-.21642105v-.80589474c0-.12378947-.030745-.18610526-.275043-.18610526-.3365329 0-1.8031519.09347368-4.1871347.09347368s-3.8821776-.09347368-4.1871346-.09347368c-.245129 0-.275043.06231579-.275043.24842105v.68126316c0 .21726316.029914.27873684.213553.27873684h1.4367049c.9472779 0 1.1608309.49515789 1.1608309 1.57978947v7.37178944c0 4.0581053.12298 6.1338948.4894269 7.527579.489427 1.9511579 1.5588539 3.3136842 3.6370488 4.1507368 1.0087679.4328421 2.5368767.6501053 4.1264756.6501053"/><path d="m67.6265874 17.7038316c0-1.3802105-.0664757-3.4997895.0997135-5.0484211.0664756-.4707368.2326647-.7056842 1.0627793-.7056842h.3315473c.1329513 0 .1994269-.1018947.1994269-.2357895v-.7073684c0-.2012631-.0664756-.2686316-.2326647-.2686316-.2318338 0-1.3943267.1010527-2.09149.1010527-1.0627794 0-2.4903438-.1010527-2.7230086-.1010527-.1661891 0-.2326647.0673685-.2326647.167579v.808421c0 .167579.0664756.2357895.2326647.2357895h.5642121c.5650429 0 1.0627793.2012632 1.2289684.6054737.1661891.4033684.2650717 2.3553684.2650717 3.1637895.0664756 1.0762105.1005444 2.1195789.1005444 4.0378947v2.2206316h-.1337823c-.3980229-.4370526-3.4858166-4.3747369-4.0840974-5.0812632-.6971633-.8412631-4.5161891-5.7212631-4.6159026-5.856-.1329512-.2012631-.3315472-.2686315-.7968767-.2686315-.398023 0-1.0960172.0673684-1.6269915.0673684-.365616 0-.8965902-.0336842-1.327851-.0673684-.4320916 0-.7977077-.0336843-.8641833-.0336843-.1329513 0-.198596.1010527-.198596.2012632v.8084211c0 .1338947.0656447.2021052.198596.2021052h.2991404c.929828 0 1.7599427.5717895 1.7599427 1.7827369v3.5334736c0 3.8029474-.0664757 6.1928421-.0997135 6.5962106-.0997135.7738947-.6306877 1.0105263-.9630659 1.0105263h-.763639c-.0997134 0-.1329513.0336842-.1329513.1002105v.8749474c0 .168421.0332379.2357895.0997135.2357895.2659026 0 1.7599427-.1010527 2.2244413-.1010527.9638968 0 2.2917478.1010527 2.5244126.1010527.1661891 0 .1661891-.0673685.1661891-.2021053v-.807579c0-.1347368 0-.2012631-.1661891-.2012631h-.6971634c-.3323782 0-.6979942-.3713684-.7968767-1.1452632-.0664757-.3023158-.2002579-3.6673684-.2002579-5.6875789v-4.6096842h.0673066c.5309742.6054737 3.2207449 4.24 4.0176217 5.1823158.3656161.4378947 1.7931806 2.1541052 3.3212894 4.0050526 1.3610889 1.6488421 2.4903439 3.0290526 2.7221777 3.264.1337822.1010526.4653295.336.7644699.336.3980229 0 .4977364-.336.4977364-.6383158z"/><path d="m75.5120946 17.3674105c0-.2357894.0332378-4.2408421.0332378-4.5768421.0332378-.7065263.3315473-.8412631 1.2289685-.8412631h.564212c.1661891 0 .1994269-.1010527.1994269-.2357895v-.807579c0-.1010526-.0664756-.168421-.1994269-.168421-.2659026 0-1.9593696.1010526-2.9224355.1010526-1.5605158.0336842-3.6195989-.1010526-3.8190258-.1010526-.1329513 0-.198596.0673684-.198596.2021053v.7738947c0 .1347368.0324069.2357895.198596.2357895h.5982808c1.3943266 0 1.693467.336 1.693467.7065263 0 .4707368.0664757 3.8366316.0664757 4.3755789v1.479579c0 1.1452631-.0332379 5.4189473-.0664757 5.7212631-.0664756.6063158-.5974498.64-1.4275644.64h-.7312321c-.1329513 0-.199427.1002106-.199427.2012632v.7402105c0 .1684211.0664757.2703158.199427.2703158.1994269 0 2.1255587-.1018947 3.2548137-.1018947 1.4940401 0 3.220745.1018947 3.4866476.1018947.1661891 0 .1994269-.1018947.1994269-.2366316v-.8075789c0-.1010527-.0332378-.167579-.1994269-.167579h-.4985674c-.9630659 0-1.3610888-.4707368-1.4275644-1.2454737-.0332378-.504421-.0332378-4.3755789-.0332378-4.5768421z"/><path d="m111.701602 12.5549474c0-.6054737.497736-.7402106.996303-.7402106 1.327851 0 2.25768.3023158 3.15427.8749474.59745.4033684 1.096017 1.312 1.096017 2.3216842 0 .8749474-.564212 3.4997895-4.250287 3.4997895-.432091 0-.763639-.0336842-.996303-.0673684zm-2.524413 5.7549473c-.032407 2.0522106 0 4.0378948-.032407 5.687579 0 .7402105-.398854.8749474-1.19573.8749474h-.398854c-.132121 0-.198596.0665263-.198596.1675789v.7738947c0 .1684211.066475.2694737.198596.2694737.232664 0 1.926132-.1010526 2.756246-.1010526 1.096017 0 2.889198.1010526 3.121863.1010526.199427 0 .265902-.0673684.265902-.2357895v-.8075789c0-.1010526-.066475-.1675789-.199427-.1675789h-.863352c-.663926 0-.863353-.3705264-.929828-.8421053v-3.6336842-.807579c.232664-.0682105.530974-.0682105.863352-.0682105 1.394327 0 1.892894.7402105 3.087794 2.8269474.29914.5052631 1.760773 3.2311579 2.391461 3.7018947.565043-.0336842 1.361089-.0673684 2.124728-.0673684.332378 0 .731232.0336842 1.029542.0336842.332378.0336842.59828.0673684.664756.0673684.132951 0 .198596-.1010526.198596-.2357895v-.6728421c0-.2021052-.032407-.3023157-.165358-.3023157-.598281 0-1.029542-.0336843-1.494871-.3705264-.630688-.4715789-1.394327-1.480421-1.859656-2.1541052-1.361089-1.9511579-2.025846-2.9953684-2.789485-3.1629474v-.0673684c2.624126-.9423158 3.91874-2.2888421 3.91874-4.6105263 0-.7747369-.431261-1.7498948-1.162493-2.4572632-.830115-.7402105-2.324155-1.312-4.316762-1.312-.431261 0-3.320459.1010526-3.719313.1010526-.59745 0-2.656533-.1010526-2.821891-.1010526-.133782 0-.199427.0673684-.199427.1684211v.8075789c0 .1347369.032407.2357895.132121.2357895h.332378c.929828 0 1.228968.3696842 1.261375 1.0433684v3.2294737z"/><path d="m127.686003 26.3863579c3.022149 0 4.615902-2.1541053 4.615902-4.6778947 0-1.6825264-.398853-2.5237895-1.062779-3.2311579-.830115-.8749474-2.059083-1.2446316-3.586361-1.8164211-.630688-.2357895-1.826418-.7410526-2.324155-1.3802105-.365616-.4378948-.531805-1.143579-.531805-1.6488421 0-.6054737.531805-2.0530527 2.357393-2.0530527.963897 0 1.693467.3368422 2.192034.9086316.697163.8084211.963066 1.9856842 1.162493 2.3898948.033238.1010526.099713.1675789.199427.1347368l.59745-.1347368c.099713-.0345264.132951-.1010527.132951-.2021053-.033238-.4715789-.332378-2.6585263-.332378-3.7692632 0-.168421-.033238-.3031579-.299141-.3031579-.265071 0-.364785 0-.43126.1010527l-.132952.2357895c-.066475.168421-.232664.1347368-.564212-.0673685-.398854-.2021052-1.096017-.4370526-2.357392-.4370526-1.195731 0-2.25851.3023158-3.121863 1.0088421-.731232.64-1.428395 1.6825263-1.428395 2.8269474 0 1.6488421.398854 2.7267368 1.162493 3.4661052.996303.9094737 2.590057 1.5141053 3.253983 1.7507369 1.760773.672 3.055386 1.5132631 3.055386 3.432421 0 1.447579-1.593753 2.2888421-2.656533 2.2888421-1.228968 0-2.324154-.6736842-2.822722-1.6825263-.59745-1.1115789-.59745-1.8181052-.59745-2.2888421 0-.1347368-.132951-.2021052-.265902-.2366316l-.59745-.0665263c-.132951 0-.199427.1010527-.232665.2357895-.033238.5381053-.265902 3.2311579-.365616 4.1734737-.033238.1675789.066476.3023158.265903.3696842.265902.0665263.432092 0 .497736-.1684211l.099714-.2686315c.067306-.2703158.265902-.2366316.498567-.0673685.763639.6046316 1.926132 1.1772632 3.619599 1.1772632"/><path d="m137.927158 17.3674105c0-.2357894.033237-4.2408421.033237-4.5768421.033238-.7065263.331548-.8412631 1.228969-.8412631h.564212c.165358 0 .199427-.1010527.199427-.2357895v-.807579c0-.1010526-.066476-.168421-.199427-.168421-.265903 0-1.95937.1010526-2.922436.1010526-1.560515.0336842-3.619598-.1010526-3.819025-.1010526-.132952 0-.198596.0673684-.198596.2021053v.7738947c0 .1347368.032407.2357895.198596.2357895h.59828c1.394327 0 1.693467.336 1.693467.7065263 0 .4707368.066476 3.8366316.066476 4.3755789v1.479579c0 1.1452631-.033238 5.4189473-.066476 5.7212631-.066475.6063158-.597449.64-1.428395.64h-.730401c-.132951 0-.199427.1002106-.199427.2012632v.7402105c0 .1684211.066476.2703158.199427.2703158.199427 0 2.125559-.1018947 3.254814-.1018947 1.49404 0 3.220745.1018947 3.486647.1018947.166189 0 .199427-.1018947.199427-.2366316v-.8075789c0-.1010527-.033238-.167579-.199427-.167579h-.498567c-.963066 0-1.361089-.4707368-1.427565-1.2454737-.033237-.504421-.033237-4.3755789-.033237-4.5768421z"/><path d="m141.588885 10.6873263c.041548-.0303158.029083-.0303158.129628-.0185263.516848.0581053 2.400602.2366316 6.049284.2366316h1.328682c1.084383 0 2.253524-.0446316 3.519054-.0976842.636504-.0185263 4.536963.0311579 5.333839.0311579.730402 0 2.988912-.1010527 3.221576-.1010527.132121 0 .231834.0673685.231834.2349474v.7410526c0 .1338948-.033238.2357895-.231834.2357895h-.498567c-.59745 0-.630688.3696842-.497736.5717895.199427.3031579 2.954842 4.7789473 3.486647 5.5865263.498568-.8421053 3.253983-4.9136842 3.386934-5.1831579.265072-.5381053.299141-.9751579-.43126-.9751579h-.531806c-.165358 0-.231833-.1018947-.231833-.2357895v-.7410526c0-.1338947.066475-.2349474.231833-.2349474.199427 0 1.859657.1010527 2.85596.1010527.59745 0 1.759943-.1010527 1.95937-.1010527.166189 0 .231834.0673685.231834.2686316v.7073684c0 .167579-.065645.2357895-.198596.2357895h-.331547c-.531806 0-.897422.1002105-1.196562.2686316-.497736.2694737-4.349169 5.7541052-5.113639 6.9330526v2.8261053c.033238.8412631 0 1.7498947.066476 2.1541052.066475.7073685.59828.7410527 1.194899.7410527h.432092c.166189 0 .232665.0665263.232665.1675789v.807579c0 .1347368-.066476.2357894-.265903.2357894-.198596 0-2.059083-.1010526-3.154269-.1010526-.730401 0-2.656533.1010526-2.85596.1010526-.166189 0-.232665-.0673684-.232665-.2694736v-.7402106c0-.1010526.066476-.2012631.199427-.2012631h.497737c1.062779 0 1.263037-.2021053 1.295444-.6736842.033237-.3023158.033237-1.5141053.033237-3.4997895v-1.2117895c-.29914-.6063158-4.35083-6.6298947-4.880974-7.1343158-.28169-.2846316-.752836-.3772631-1.051977-.3983158.196934.912.46533 2.1069474.57086 2.6863158.034069.1347369-.033238.2021053-.166189.2694737l-.563381.1684211c-.200258.0673684-.299972.0336842-.366447-.1347369-.398023-.8412631-.962235-1.952-1.66023-2.5911579-.830114-.3031579-3.258968-.3368421-3.857249-.3368421v5.6538948c0 3.5334736 0 6.0572631.034069 6.3275789.066475.5372632.231834.8749474.762808.8749474h1.262206c.166189 0 .232665.1002105.232665.3023158v.7065263c0 .1010526-.066476.2021052-.232665.2021052-.231834 0-2.290917-.1010526-3.386934-.1010526-.929828 0-3.088625.1010526-3.353696.1010526-.200258 0-.265903-.1010526-.265903-.3031579v-.6728421c0-.168421.065645-.2349473.199427-.2349473h1.327851c.498567 0 .730401-.2703158.763639-.5389474.099714-1.2783158.099714-3.0627368.099714-5.0821053v-7.2353684c-.630688 0-2.49533-.0336842-3.724298.3031579-.830115.6391579-1.527278 1.7162105-1.958539 2.5911579-.067307.1347369-.166189.2357895-.29914.1684211l-.598281-.2357895c-.165358-.0673684-.165358-.2021053-.132121-.336.191949-.6113684.768625-2.6871579 1.038682-3.7052632.014126-.0538947.019112-.0850526.059828-.1145263"/><path d="m84.9580344 10.9731368v.7738948c0 .1347368-.0997135.2021052-.2326648.2021052h-.7636389c-.4320917 0-.9298281.0673685-.9298281.5044211 0 .7747368.564212 2.0867368 1.4608023 4.9136842.2659025.8412632 1.494871 4.7452632 1.694298 5.2842105h.0997134c.198596-.7073684 1.8255874-4.88 1.9917765-5.3852631 1.2622063-3.735579 1.6934671-4.6442106 1.6934671-4.9802106 0-.168421-.1321204-.3368421-.6971633-.3368421h-.3656161c-.1321203 0-.198596-.0673684-.198596-.2357894v-.7738948c0-.1010526.0664757-.2021052.198596-.2021052.1994269 0 1.9261318.1010526 2.6906017.1010526h5.0762465l7.4377933-.0336842c.332379 0 .763639-.0673684.896591-.0673684.066475 0 .132951.0673684.199427.4715789.066475.3031579.996303 3.1966316 1.062779 3.4324211.033238.1347368.033238.2021052-.033238.2357894l-.531805.2357895c-.065645.0336842-.199427.0336842-.29831-.1347368-.066475-.1010527-1.66106-1.9856842-2.225272-2.5246316-.398023-.3696842-.929828-.5044211-1.261375-.5044211l-3.5198855-.0673684v5.7212632c.198596 0 2.1579655-.1010527 2.4238685-.1684211.863352-.2357894 1.19573-.7073684 1.19573-1.7498947 0-.1347369.032407-.1684211.165359-.1684211l.731232.0336842c.13212 0 .231833.0673685.198596.2021053-.066476.3031579-.066476 2.0867369-.066476 2.3890526 0 .7402106.099713 1.783579.132951 2.2214737 0 .1347369-.066475.1684211-.166189.1684211l-.697163.0665263c-.099714 0-.166189 0-.199427-.1338947-.165358-.8412632-.364785-1.3802106-1.228138-1.5823158-.9963034-.2349474-2.1587962-.2349474-2.4903435-.2349474v1.1435789c0 1.1789474.0656447 3.1301053.0656447 3.568 0 1.5806316.9630659 1.6825264 2.3914618 1.6825264 1.460802 0 2.39063-.0336842 3.519885-.9431579.265072-.2012632 1.427564-1.7162106 1.759943-2.2534737.166189-.2366316.332378-.2703158.43126-.2029474l.531806.3031579c.066475.0336842.132951.1347369.099713.2357895l-1.195731 3.5671579c-.066475.168421-.232664.3368421-.364785.3368421-.232665 0-1.992607-.1010526-8.9659023-.1010526-.5982808 0-2.4246992.1010526-2.8227221.1010526-.1670201 0-.1994269-.1010526-.1994269-.2357895v-.7738947c0-.135579.0656447-.2021053.2318338-.2021053h.2991404c1.5605157 0 1.6602292-.1347368 1.6602292-.6054737v-5.0821052-2.0867369c0-1.7835789-.0324069-3.9705263-.0664757-4.3073684-.0997134-.7065263-.2983094-.8412632-1.6269914-.8412632h-.2609169-.0706303-.4603439c-.6306877 0-1.0960172.2021053-1.3951576.5044211-.6306876.64-2.4238682 5.048421-2.7562464 5.9233684-.2991404.7065263-3.021318 7.3027369-3.2872206 7.7406316-.0997135.1675789-.2659026.2686316-.5309742.2686316-.2659026 0-.4320917-.2349474-.5318052-.5044211-.7304011-1.9856842-2.4903438-6.8656842-2.7562464-7.6058947l-.2326648-.7410526c-.564212-1.5469474-1.5605157-4.6096843-1.7931805-4.9465264-.2650716-.3696842-.5309742-.6391579-.9630659-.6391579h-.3315473c-.1329512 0-.1661891-.1010526-.1661891-.2021052v-.8412632c0-.1010526.0664757-.168421.198596-.168421.1670201 0 1.9926075.1010526 2.8559599.1010526.7968768 0 2.8227221-.1010526 3.022149-.1010526s.2659026.0673684.2659026.2357894"/></g><path d="m19.0444413 24.5780211h2.3756733v-11.4652632h-2.3756733z" fill="#e57200" mask="url(#b)"/><path d="m6.21630372 24.5780211h2.30088826v-11.4652632h-2.30088826z" fill="#e57200" mask="url(#b)"/><path d="m9.30908309 24.5780211h2.45295131v-11.4652632h-2.45295131z" fill="#e57200" mask="url(#b)"/><path d="m12.5547564 24.5780211h2.4529513v-11.4652632h-2.4529513z" fill="#e57200" mask="url(#b)"/><path d="m15.7987679 24.5780211h2.4529513v-11.4652632h-2.4529513z" fill="#e57200" mask="url(#b)"/><path d="m20.3994642 12.3024842h-13.21369629l6.78217769-4.22905262z" fill="#e57200" mask="url(#b)"/><path d="m5.66397421 12.3024842h-5.66123209v-4.27284209h12.51404008z" fill="#e57200" mask="url(#b)"/><path d="m15.3670917 8.02989474h12.1916332v4.27284206h-5.6944699z" fill="#e57200" mask="url(#b)"/><path d="m25.8139885 7.21978947h-24.06584523c2.3565616-4.30821052 6.86111747-7.22021052 12.03209173-7.22021052 5.1701432 0 9.676361 2.912 12.0337535 7.22021052" fill="#e57200" mask="url(#b)"/><path d="m.00274212 15.0928v-.6661053l.1587106.1170527-.11467048.3570526zm4.68902579 9.4854737h-1.06610315l.5326361-.3924211zm.73289398 0h-.72790831l-.20441261-.6374737.53845273-.3974737h-.6655874l-.20690544-.6425263-.20524355.6425263h-.66641834l.54011461.3974737-.2060745.6374737h-3.61793696l-.00249284-6.9136842.00249284-2.4926316.5052149-.3722105.53928367.3966315-.2060745-.6425263.53928367-.3966315h-.66641834l-.2060745-.6416843-.0930659.2922106-.13045846.3494737h-.28169054v-1.0450527h5.42191977zm-5.42441261-6.9136842.53928367.3966316-.20690544.6425263.53928367-.3974737.53928366.3974737-.2060745-.6425263.53928367-.3966316h-.66641834l-.20607449-.6416842-.2060745.6416842zm1.85633238 3.6454737-.20690544.6425263.53845272-.3966316.53928367.3966316-.2060745-.6425263.53928367-.3966316h-.66641834l-.2060745-.6425263-.20524355.6425263h-.66641834z" fill="#e57200" mask="url(#b)"/><path d="m.00332378 28.4323368h5.42191977v-3.0442105h-5.42191977z" fill="#e57200" mask="url(#b)"/><path d="m22.2120057 28.4323368h5.3463038v-3.0442105h-5.3463038z" fill="#e57200" mask="url(#b)"/><path d="m14.1093725 28.4324211h-.609914l.3032951-.224zm-4.1048711-.8943158-.20690541.6408421.53845271-.3957895.5392837.3957895-.2060745-.6408421.5392836-.3974737h-.6664183l-.2060745-.6425263-.2052435.6425263h-.66641838zm3.465874.4252631-.1504012.4690527h-7.10375357v-3.0442106h.87664756l-.15289398.4766316h-.66641834l.54011462.3966316-.20690545.6425263.53928367-.3974737.53928367.3974737-.2060745-.6425263.53845272-.3966316h-.66558739l-.15289398-.4766316h13.19957017l-.152063.4766316h-.6664183l.5384527.3966316-.2052436.6425263.5384527-.3974737.5392837.3974737-.2069054-.6425263.5401146-.3966316h-.6664184l-.1528939-.4766316h.915702v3.0442106h-7.1344986l-.1504011-.4690527.5392836-.3966316h-.6664183l-.2060745-.6425263-.2060745.6425263h-.6655874zm4.0267621-.4252631.5401146-.3974737h-.6664183l-.2060745-.6425263-.2052435.6425263h-.6664184l.5384527.3974737-.2052435.6408421.5384527-.3957895.5392837.3957895z" fill="#e57200" mask="url(#b)"/><path d="m27.5586418 14.4538105v.5254737l-.137106-.4252631zm0 10.1237895h-3.5822063-1.0702578-.6938396v-11.4652632h5.3463037v1.0450527h-.2625788l-.2060745-.6416842-.2060745.6416842h-.6664183l.5392837.3966316-.2060745.6425263.5392836-.3966316.4686533.3452631v2.519579h-.6265329l-.2060745-.6416842-.2060745.6416842h-.6655874l.5384527.3966316-.2052435.6425263.5384527-.3974737.5384527.3974737-.2069054-.6425263.5010601-.3671579zm-3.5822063 0-.2052435-.6366316.5401146-.3974737h-.6655874l-.2069054-.6425263-.2052436.6425263h-.6664183l.5392836.3974737-.2044126.6366316.5367909-.3915789.533467.3915789zm1.7649284-3.2673684.5401146-.3966316h-.6655874l-.2060745-.6425263-.2060745.6425263h-.6664183l.5392836.3966316-.2060744.6416842.5392836-.3957895.5392837.3957895z" fill="#e57200" mask="url(#b)"/></g><text font-family="Helvetica" font-size="14"><tspan fill="#fff" x="718.4375" y="49">SIS </tspan><tspan fill="#e57200" x="752.671875" y="49">/</tspan> <tspan fill="#fff" x="756.561523" y="49">COLLAB </tspan><tspan fill="#e57200" x="835.147461" y="49">/</tspan> <tspan fill="#fff" x="839.037109" y="49">EMAIL </tspan><tspan fill="#e57200" x="903.875977" y="49">/</tspan> <tspan fill="#fff" x="907.765625" y="49">JOBS</tspan></text></g></svg>