<svg height="17" viewBox="0 0 17 17" width="17" xmlns="http://www.w3.org/2000/svg"><g fill="none" fill-rule="evenodd"><path d="m-1188-25h1479v70h-1479z" fill="#232d4b"/><path d="m10.0245309 8.52111686c-.36761929.62155279-.88186125 1.13579475-1.50341404 1.50341404-.63111514.3718692-1.35891627.6003031-2.14621647.6003031-2.34702583 0-4.24993359-1.90290778-4.24993359-4.24993361s1.90290776-4.24993359 4.24993359-4.24993359 4.24993361 1.90290776 4.24993361 4.24993359c0 .78623772-.2273715 1.51403885-.6003031 2.14621647m6.6638958 6.66495834-5.1211699-5.12117c.7416134-1.04229618 1.182544-2.31408881 1.182544-3.69000481 0-3.52106998-2.85383042-6.37490039-6.37490041-6.37490039-3.5200075 0-6.37490039 2.85383041-6.37490039 6.37490039 0 3.5200075 2.85489289 6.37490041 6.37490039 6.37490041 1.37697849 0 2.64877112-.4409306 3.69000481-1.182544l5.12117 5.1211699c.415431.4154311 1.087983.4154311 1.5023515 0 .4154311-.415431.4154311-1.0869205 0-1.5023515" fill="#f37b42"/></g></svg>