<svg height="47" viewBox="0 0 47 47" width="47" xmlns="http://www.w3.org/2000/svg"><g fill="none" fill-rule="evenodd" transform="translate(0 -56)"><circle cx="23.5" cy="79.5" fill="#232d4b" r="23.5"/><path d="m36 70.7048214c-.421875.2571429-1.684375.7698215-2.8625.9.7546875-.4516071 1.8734375-1.9301785 2.15-3.1033928-.7265625.5126785-2.39375 1.2616071-3.21875 1.2616071 0 0 0 .0032143.0015625.0048214-.9390625-1.0896428-2.2609375-1.7678571-3.728125-1.7678571-2.8484375 0-5.1578125 2.5585714-5.1578125 5.7133929 0 .43875.046875.8646428.1328125 1.2728571h-.0015625c-3.8640625-.1092857-8.3796875-2.2548214-10.925-5.9255357-1.5625 2.9973214-.2109375 6.3321428 1.5640625 7.5455357-.60625.0530357-1.7265625-.0755357-2.253125-.6428571-.0359375 1.9896428.828125 4.6253571 3.978125 5.5816071-.6078125.3632143-1.678125.25875-2.146875.18.165625 1.6810714 2.2890625 3.8796429 4.609375 3.8796429-.8265625 1.0575-3.65 2.9828571-7.1421875 2.3689285 2.3734375 1.6007143 5.1390625 2.5264286 8.0671875 2.5264286 8.3203125 0 14.7828125-7.4683929 14.434375-16.68375 0-.0096429-.003125-.0225-.003125-.0305357 0-.0257143.003125-.0498214.003125-.0723214 0-.0289286-.003125-.05625-.003125-.0867858.7578125-.5705357 1.7734375-1.5846428 2.5015625-2.9217857" fill="#fff"/></g></svg>