<svg height="27" viewBox="0 0 30 27" width="30" xmlns="http://www.w3.org/2000/svg"><g fill="none" fill-rule="evenodd" transform="translate(-1021 -5151)"><path d="m0 5097h1442v165h-1442z" fill="#232d4b"/><path d="m1051 5154.24579c-.50625.30857-2.02125.92378-3.435 1.08.90562-.54193 2.24812-2.31622 2.58-3.72408-.87188.61522-2.8725 1.51393-3.8625 1.51393 0 0 0 .00386.00187.00579-1.12687-1.30757-2.71312-2.12143-4.47374-2.12143-3.41813 0-6.18938 3.07029-6.18938 6.85607 0 .5265.05625 1.03757.15938 1.52743h-.00188c-4.63687-.13114-10.05563-2.70579-13.11-7.11064-1.875 3.59678-.25313 7.59857 1.87687 9.05464-.72749.06364-2.07187-.09064-2.70375-.77143-.04312 2.38757.99376 5.55043 4.77375 6.69793-.72937.43586-2.01374.3105-2.57624.216.19875 2.01729 2.74687 4.65557 5.53125 4.65557-.99188 1.269-4.38001 3.57943-8.57063 2.84272 2.84812 1.92085 6.16687 3.03171 9.68062 3.03171 9.98438 0 17.73938-8.96207 17.32125-20.0205 0-.01157-.00374-.027-.00374-.03664 0-.03086.00374-.05979.00374-.08679 0-.03471-.00374-.0675-.00374-.10414.90937-.68464 2.12812-1.90157 3.00187-3.50614" fill="#fff"/></g></svg>